<svg width="45" height="26" viewBox="0 0 45 26" fill="none" xmlns="http://www.w3.org/2000/svg">
<path d="M10.4656 13.2184V12.7649C11.3959 12.323 11.861 11.2183 11.861 9.45078C11.861 8.38096 11.768 7.59022 11.5819 7.07857C11.3959 6.54366 11.0703 6.18318 10.6052 5.99712C10.1633 5.81107 9.53533 5.71804 8.72134 5.71804H1.91869L0 0.799206H9.90744C11.9541 0.799206 13.6634 1.06666 15.0356 1.60157C16.4077 2.11322 17.4311 2.98536 18.1055 4.21797C18.8032 5.42733 19.1521 7.0902 19.1521 9.20658C19.1521 11.6486 18.6172 13.5207 17.5473 14.8231L20.1637 25.9167H13.1867L10.4656 13.2184ZM8.72134 25.9167H1.91869V7.46231H8.72134V25.9167ZM34.4403 20.7536H30.9169L19.3001 0.799206H27.9516L32.8356 11.2997L37.7195 0.799206H44.5222L34.4403 20.7536ZM37.5102 18.3814L44.1384 5.19476V25.9167H37.5102V18.3814ZM21.5676 7.91582L28.1958 19.6373V25.9167H21.5676V7.91582Z" fill="url(#paint0_linear_1_3)"/>
<defs>
<linearGradient id="paint0_linear_1_3" x1="-4.65476" y1="12.9167" x2="51.75" y2="12.9167" gradientUnits="userSpaceOnUse">
<stop stop-color="#6366F1"/>
<stop offset="0.504922" stop-color="#A855F7"/>
<stop offset="1" stop-color="#EC4899"/>
</linearGradient>
</defs>
</svg>
